<svg width="74" height="20" viewBox="0 0 74 20" fill="none" xmlns="http://www.w3.org/2000/svg">
<path d="M0 3C0 1.34315 1.34315 0 3 0H37V20H3C1.34315 20 0 18.6569 0 17V3Z" fill="#FDF5B2"/>
<path d="M37 0H71C72.6569 0 74 1.34315 74 3V17C74 18.6569 72.6569 20 71 20H37V0Z" fill="black"/>
<path d="M6.12 14H4.26C4.108 14 3.996 13.968 3.924 13.904C3.86 13.832 3.828 13.72 3.828 13.568V5.792C3.828 5.64 3.86 5.532 3.924 5.468C3.996 5.396 4.108 5.36 4.26 5.36H9.612C9.764 5.36 9.872 5.396 9.936 5.468C10.008 5.532 10.044 5.64 10.044 5.792V7.22C10.044 7.372 10.008 7.484 9.936 7.556C9.872 7.62 9.764 7.652 9.612 7.652H6.552V8.9H8.64C8.792 8.9 8.9 8.936 8.964 9.008C9.036 9.072 9.072 9.18 9.072 9.332V10.772C9.072 10.924 9.036 11.036 8.964 11.108C8.9 11.172 8.792 11.204 8.64 11.204H6.552V13.568C6.552 13.72 6.516 13.832 6.444 13.904C6.38 13.968 6.272 14 6.12 14ZM11.486 14C11.334 14 11.222 13.968 11.15 13.904C11.086 13.832 11.054 13.72 11.054 13.568V12.14C11.054 11.988 11.086 11.88 11.15 11.816C11.222 11.744 11.334 11.708 11.486 11.708H12.674V7.676H11.486C11.334 7.676 11.222 7.644 11.15 7.58C11.086 7.508 11.054 7.396 11.054 7.244V5.792C11.054 5.64 11.086 5.532 11.15 5.468C11.222 5.396 11.334 5.36 11.486 5.36H16.598C16.75 5.36 16.858 5.396 16.922 5.468C16.994 5.532 17.03 5.64 17.03 5.792V7.244C17.03 7.396 16.994 7.508 16.922 7.58C16.858 7.644 16.75 7.676 16.598 7.676H15.434V11.708H16.598C16.75 11.708 16.858 11.744 16.922 11.816C16.994 11.88 17.03 11.988 17.03 12.14V13.568C17.03 13.72 16.994 13.832 16.922 13.904C16.858 13.968 16.75 14 16.598 14H11.486ZM25.0516 14H18.9436C18.7916 14 18.6796 13.968 18.6076 13.904C18.5436 13.832 18.5116 13.72 18.5116 13.568V5.792C18.5116 5.64 18.5436 5.532 18.6076 5.468C18.6796 5.396 18.7916 5.36 18.9436 5.36H20.8036C20.9556 5.36 21.0636 5.396 21.1276 5.468C21.1996 5.532 21.2356 5.64 21.2356 5.792V11.732H22.8796V9.788C22.8796 9.636 22.9116 9.528 22.9756 9.464C23.0476 9.392 23.1596 9.356 23.3116 9.356H25.0516C25.2036 9.356 25.3116 9.392 25.3756 9.464C25.4476 9.528 25.4836 9.636 25.4836 9.788V13.568C25.4836 13.72 25.4476 13.832 25.3756 13.904C25.3116 13.968 25.2036 14 25.0516 14ZM29.0753 14H27.2873C27.1353 14 27.0233 13.968 26.9513 13.904C26.8873 13.832 26.8553 13.72 26.8553 13.568V5.792C26.8553 5.64 26.8873 5.532 26.9513 5.468C27.0233 5.396 27.1353 5.36 27.2873 5.36H29.2193C29.3473 5.36 29.4513 5.388 29.5313 5.444C29.6193 5.5 29.6993 5.592 29.7713 5.72L30.8513 7.676C30.8913 7.748 30.9233 7.8 30.9473 7.832C30.9793 7.864 31.0193 7.88 31.0673 7.88H31.1753C31.2233 7.88 31.2593 7.864 31.2833 7.832C31.3153 7.8 31.3513 7.748 31.3913 7.676L32.4593 5.72C32.5313 5.592 32.6073 5.5 32.6873 5.444C32.7753 5.388 32.8833 5.36 33.0113 5.36H34.9553C35.1073 5.36 35.2153 5.396 35.2793 5.468C35.3513 5.532 35.3873 5.64 35.3873 5.792V13.568C35.3873 13.72 35.3513 13.832 35.2793 13.904C35.2153 13.968 35.1073 14 34.9553 14H33.1073C32.9553 14 32.8433 13.968 32.7713 13.904C32.7073 13.832 32.6753 13.72 32.6753 13.568V9.344L31.9673 10.652C31.8953 10.788 31.8073 10.888 31.7033 10.952C31.6073 11.008 31.4833 11.036 31.3313 11.036H30.8513C30.6993 11.036 30.5713 11.008 30.4673 10.952C30.3713 10.888 30.2873 10.788 30.2153 10.652L29.5073 9.344V13.568C29.5073 13.72 29.4713 13.832 29.3993 13.904C29.3353 13.968 29.2273 14 29.0753 14Z" fill="black"/>
<path d="M44.868 14H40.26C40.108 14 39.996 13.968 39.924 13.904C39.86 13.832 39.828 13.72 39.828 13.568V5.792C39.828 5.64 39.86 5.532 39.924 5.468C39.996 5.396 40.108 5.36 40.26 5.36H44.088C44.872 5.36 45.452 5.512 45.828 5.816C46.204 6.112 46.392 6.572 46.392 7.196V7.772C46.392 8.108 46.332 8.384 46.212 8.6C46.1 8.808 45.924 8.964 45.684 9.068C46.196 9.116 46.576 9.292 46.824 9.596C47.072 9.9 47.196 10.344 47.196 10.928V12.032C47.196 12.704 47.004 13.2 46.62 13.52C46.244 13.84 45.66 14 44.868 14ZM42.528 7.4V8.696H43.548C43.7 8.696 43.812 8.656 43.884 8.576C43.964 8.496 44.004 8.376 44.004 8.216V7.88C44.004 7.72 43.964 7.6 43.884 7.52C43.812 7.44 43.7 7.4 43.548 7.4H42.528ZM42.528 10.544V11.96H44.088C44.24 11.96 44.352 11.92 44.424 11.84C44.504 11.76 44.544 11.64 44.544 11.48V11.012C44.544 10.852 44.504 10.736 44.424 10.664C44.352 10.584 44.24 10.544 44.088 10.544H42.528ZM55.8433 11.732C55.8433 12.1 55.7873 12.436 55.6753 12.74C55.5713 13.036 55.3793 13.292 55.0993 13.508C54.8273 13.716 54.4473 13.88 53.9593 14C53.4793 14.12 52.8673 14.18 52.1233 14.18C51.3793 14.18 50.7633 14.12 50.2753 14C49.7873 13.88 49.4033 13.716 49.1233 13.508C48.8513 13.292 48.6593 13.036 48.5473 12.74C48.4433 12.436 48.3913 12.1 48.3913 11.732V7.64C48.3913 7.272 48.4433 6.94 48.5473 6.644C48.6593 6.34 48.8513 6.08 49.1233 5.864C49.4033 5.648 49.7873 5.48 50.2753 5.36C50.7633 5.24 51.3793 5.18 52.1233 5.18C52.8673 5.18 53.4793 5.24 53.9593 5.36C54.4473 5.48 54.8273 5.648 55.0993 5.864C55.3793 6.08 55.5713 6.34 55.6753 6.644C55.7873 6.94 55.8433 7.272 55.8433 7.64V11.732ZM51.1153 11.3C51.1153 11.46 51.1753 11.596 51.2953 11.708C51.4153 11.812 51.6913 11.864 52.1233 11.864C52.5553 11.864 52.8313 11.812 52.9513 11.708C53.0713 11.596 53.1313 11.46 53.1313 11.3V8.072C53.1313 7.92 53.0713 7.792 52.9513 7.688C52.8313 7.576 52.5553 7.52 52.1233 7.52C51.6913 7.52 51.4153 7.576 51.2953 7.688C51.1753 7.792 51.1153 7.92 51.1153 8.072V11.3ZM59.951 13.568C59.951 13.72 59.915 13.832 59.843 13.904C59.779 13.968 59.671 14 59.519 14H57.695C57.543 14 57.431 13.968 57.359 13.904C57.295 13.832 57.263 13.72 57.263 13.568V12.284C57.263 11.916 57.295 11.64 57.359 11.456C57.423 11.272 57.543 11.056 57.719 10.808L58.691 9.5L57.719 8.192C57.535 7.944 57.411 7.728 57.347 7.544C57.291 7.36 57.263 7.084 57.263 6.716V5.792C57.263 5.64 57.295 5.532 57.359 5.468C57.431 5.396 57.543 5.36 57.695 5.36H59.543C59.695 5.36 59.803 5.396 59.867 5.468C59.939 5.532 59.975 5.64 59.975 5.792V6.62C59.975 6.7 59.979 6.784 59.987 6.872C59.995 6.96 60.027 7.044 60.083 7.124L60.611 7.88C60.651 7.944 60.691 7.996 60.731 8.036C60.779 8.068 60.835 8.084 60.899 8.084H61.043C61.107 8.084 61.159 8.068 61.199 8.036C61.239 7.996 61.283 7.944 61.331 7.88L61.871 7.124C61.927 7.044 61.959 6.96 61.967 6.872C61.975 6.784 61.979 6.7 61.979 6.62V5.792C61.979 5.64 62.011 5.532 62.075 5.468C62.147 5.396 62.259 5.36 62.411 5.36H64.235C64.387 5.36 64.495 5.396 64.559 5.468C64.631 5.532 64.667 5.64 64.667 5.792V6.716C64.667 7.084 64.635 7.36 64.571 7.544C64.507 7.728 64.387 7.944 64.211 8.192L63.239 9.512L64.211 10.808C64.395 11.056 64.515 11.272 64.571 11.456C64.635 11.64 64.667 11.916 64.667 12.284V13.568C64.667 13.72 64.631 13.832 64.559 13.904C64.495 13.968 64.387 14 64.235 14H62.411C62.259 14 62.147 13.968 62.075 13.904C62.011 13.832 61.979 13.72 61.979 13.568V12.38C61.979 12.3 61.975 12.216 61.967 12.128C61.959 12.04 61.927 11.956 61.871 11.876L61.343 11.12C61.295 11.048 61.251 10.996 61.211 10.964C61.171 10.932 61.119 10.916 61.055 10.916H60.887C60.823 10.916 60.771 10.932 60.731 10.964C60.691 10.996 60.647 11.048 60.599 11.12L60.059 11.876C60.003 11.956 59.971 12.04 59.963 12.128C59.955 12.216 59.951 12.3 59.951 12.38V13.568Z" fill="#FDF5B2"/>
</svg>
